<mxfile host="app.diagrams.net" agent="Mozilla/5.0 (Windows NT 10.0; Win64; x64; rv:136.0) Gecko/20100101 Firefox/136.0" version="26.1.1">
  <diagram name="Page-1" id="qpo8dFxCqYZ4-47l11wi">
    <mxGraphModel dx="1195" dy="685" grid="1" gridSize="10" guides="1" tooltips="1" connect="1" arrows="1" fold="1" page="1" pageScale="1" pageWidth="850" pageHeight="1100" math="0" shadow="0">
      <root>
        <mxCell id="0" />
        <mxCell id="1" parent="0" />
        <mxCell id="d6z3RVgQiJXZrTqimtjq-2" value="" style="ellipse;whiteSpace=wrap;html=1;aspect=fixed;fillColor=light-dark(#A20025,#CC0000);fontColor=#ffffff;strokeColor=light-dark(#6F0000,#660000);" vertex="1" parent="1">
          <mxGeometry x="100" y="325" width="50" height="50" as="geometry" />
        </mxCell>
        <mxCell id="d6z3RVgQiJXZrTqimtjq-3" value="" style="ellipse;whiteSpace=wrap;html=1;aspect=fixed;fillColor=light-dark(#E3C800,#FFFF00);strokeColor=#B09500;fontColor=#000000;" vertex="1" parent="1">
          <mxGeometry x="290" y="140" width="50" height="50" as="geometry" />
        </mxCell>
        <mxCell id="d6z3RVgQiJXZrTqimtjq-4" value="" style="ellipse;whiteSpace=wrap;html=1;aspect=fixed;fillColor=#60a917;fontColor=#ffffff;strokeColor=#2D7600;" vertex="1" parent="1">
          <mxGeometry x="410" y="180" width="50" height="50" as="geometry" />
        </mxCell>
        <mxCell id="d6z3RVgQiJXZrTqimtjq-5" value="" style="ellipse;whiteSpace=wrap;html=1;aspect=fixed;fillColor=light-dark(#E3C800,#FFFF00);fontColor=#000000;strokeColor=#B09500;" vertex="1" parent="1">
          <mxGeometry x="500" y="250" width="50" height="50" as="geometry" />
        </mxCell>
        <mxCell id="d6z3RVgQiJXZrTqimtjq-6" value="" style="ellipse;whiteSpace=wrap;html=1;aspect=fixed;fillColor=light-dark(#E3C800,#FFFF00);fontColor=#000000;strokeColor=#B09500;" vertex="1" parent="1">
          <mxGeometry x="360" y="330" width="50" height="50" as="geometry" />
        </mxCell>
        <mxCell id="d6z3RVgQiJXZrTqimtjq-7" value="" style="ellipse;whiteSpace=wrap;html=1;aspect=fixed;fillColor=#60a917;fontColor=#ffffff;strokeColor=#2D7600;" vertex="1" parent="1">
          <mxGeometry x="450" y="420" width="50" height="50" as="geometry" />
        </mxCell>
        <mxCell id="d6z3RVgQiJXZrTqimtjq-8" value="" style="ellipse;whiteSpace=wrap;html=1;aspect=fixed;fillColor=#60a917;fontColor=#ffffff;strokeColor=#2D7600;" vertex="1" parent="1">
          <mxGeometry x="310" y="470" width="50" height="50" as="geometry" />
        </mxCell>
        <mxCell id="d6z3RVgQiJXZrTqimtjq-9" value="" style="endArrow=none;html=1;rounded=0;exitX=1;exitY=0.5;exitDx=0;exitDy=0;" edge="1" parent="1" source="d6z3RVgQiJXZrTqimtjq-2">
          <mxGeometry width="50" height="50" relative="1" as="geometry">
            <mxPoint x="149.99999999999966" y="354.71" as="sourcePoint" />
            <mxPoint x="240" y="350" as="targetPoint" />
          </mxGeometry>
        </mxCell>
        <mxCell id="d6z3RVgQiJXZrTqimtjq-11" value="" style="endArrow=classic;html=1;rounded=0;entryX=0;entryY=1;entryDx=0;entryDy=0;" edge="1" parent="1" target="d6z3RVgQiJXZrTqimtjq-4">
          <mxGeometry width="50" height="50" relative="1" as="geometry">
            <mxPoint x="240" y="350" as="sourcePoint" />
            <mxPoint x="370" y="370" as="targetPoint" />
          </mxGeometry>
        </mxCell>
        <mxCell id="d6z3RVgQiJXZrTqimtjq-14" value="" style="endArrow=classic;html=1;rounded=0;entryX=0;entryY=0.5;entryDx=0;entryDy=0;" edge="1" parent="1" target="d6z3RVgQiJXZrTqimtjq-7">
          <mxGeometry width="50" height="50" relative="1" as="geometry">
            <mxPoint x="240" y="350" as="sourcePoint" />
            <mxPoint x="370" y="370" as="targetPoint" />
          </mxGeometry>
        </mxCell>
        <mxCell id="d6z3RVgQiJXZrTqimtjq-15" value="" style="endArrow=classic;html=1;rounded=0;entryX=0;entryY=0;entryDx=0;entryDy=0;" edge="1" parent="1" target="d6z3RVgQiJXZrTqimtjq-8">
          <mxGeometry width="50" height="50" relative="1" as="geometry">
            <mxPoint x="240" y="350" as="sourcePoint" />
            <mxPoint x="370" y="370" as="targetPoint" />
          </mxGeometry>
        </mxCell>
        <mxCell id="d6z3RVgQiJXZrTqimtjq-16" value="&lt;font style=&quot;font-size: 32px;&quot; face=&quot;Tahoma&quot;&gt;Multicast&lt;/font&gt;" style="text;html=1;align=center;verticalAlign=middle;whiteSpace=wrap;rounded=0;" vertex="1" parent="1">
          <mxGeometry x="270" y="90" width="150" height="30" as="geometry" />
        </mxCell>
      </root>
    </mxGraphModel>
  </diagram>
</mxfile>
